# xmcd
#
# Track frame offsets:
#	150
#	4255
#	26152
#	42633
#	63875
#	84762
#	108935
#	130914
#	143477
#	169795
#	211411
#
# Disc length: 3103 seconds
#
# Revision: 14
# Processed by: cddbd v1.5.2PL0 Copyright (c) Steve Scherf et al.
# Submitted via: Jack! The Knife 20 Magnifico
#
DISCID=8d0c1d0b
DTITLE=Rage - Secrets In A Weird World
DYEAR=1989
DGENRE=Metal
TTITLE0=Intro (Opus 32 No.3)
TTITLE1=Time Waits For Noone
TTITLE2=Make My Day
TTITLE3=The Inner Search
TTITLE4=Invisible Horizons
TTITLE5=She
TTITLE6=Light Into The Darkness
TTITLE7=Talk To Grandpa
TTITLE8=Distant Voices
TTITLE9=Without A Trace
TTITLE10=Lost Side Of The World
EXTD=Armin Sabol
EXTT0=Peter Wagner
EXTT1=Schmidt, Wagner
EXTT2=Peter Wagner
EXTT3=Peter Wagner
EXTT4=Peter Wagner
EXTT5=Schmidt, Wagner
EXTT6=Peter Wagner
EXTT7=Peter Wagner
EXTT8=Schmidt, Wagner
EXTT9=Peter Wagner
EXTT10=Peter Wagner
PLAYORDER=
